<svg width="110" height="18" viewBox="0 0 110 18" fill="none" xmlns="http://www.w3.org/2000/svg">
<path d="M31.1518 0.618409L29.2166 4.55662C29.1182 4.75703 28.9727 4.9304 28.7927 5.06177C28.6127 5.19314 28.4036 5.27858 28.1834 5.31073L23.8579 5.94244C23.6552 5.97192 23.4647 6.05783 23.308 6.19043C23.1514 6.32304 23.0348 6.49705 22.9715 6.69277C22.9082 6.88849 22.9008 7.09809 22.9499 7.29786C22.9991 7.49762 23.103 7.67956 23.2498 7.82309L26.381 10.8888C26.54 11.0447 26.659 11.2369 26.7277 11.4491C26.7964 11.6613 26.8128 11.8871 26.7755 12.107L26.0363 16.4362C26.002 16.6389 26.0247 16.8471 26.1021 17.0375C26.1794 17.2278 26.3082 17.3926 26.4738 17.5133C26.6395 17.634 26.8355 17.7057 27.0396 17.7204C27.2438 17.7351 27.4479 17.6921 27.629 17.5964L31.4983 15.5527C31.6952 15.4488 31.9143 15.3945 32.1368 15.3945C32.3592 15.3945 32.5783 15.4488 32.7752 15.5527L36.6445 17.5964C36.8256 17.6921 37.0297 17.7351 37.2339 17.7204C37.438 17.7057 37.634 17.634 37.7996 17.5133C37.9653 17.3926 38.0941 17.2278 38.1714 17.0375C38.2488 16.8471 38.2715 16.6389 38.2372 16.4362L37.498 12.107C37.4606 11.8871 37.477 11.6613 37.5457 11.4491C37.6144 11.2369 37.7334 11.0446 37.8924 10.8888L41.0237 7.82309C41.1705 7.67956 41.2744 7.49762 41.3236 7.29786C41.3727 7.09809 41.3653 6.88849 41.302 6.69277C41.2387 6.49705 41.1221 6.32304 40.9655 6.19043C40.8088 6.05783 40.6183 5.97192 40.4156 5.94244L36.0883 5.31073C35.8682 5.27858 35.6591 5.19314 35.4791 5.06177C35.2991 4.9304 35.1536 4.75703 35.0552 4.55662L33.12 0.618409C33.0294 0.433927 32.8892 0.278588 32.7153 0.16997C32.5414 0.0613511 32.3407 0.00378418 32.1359 0.00378418C31.9311 0.00378418 31.7304 0.0613511 31.5565 0.16997C31.3826 0.278588 31.2424 0.433927 31.1518 0.618409Z" fill="#FFAF00"/>
<path d="M54.0348 0.618723L52.0996 4.55693C52.0011 4.75734 51.8556 4.93071 51.6756 5.06209C51.4957 5.19346 51.2866 5.2789 51.0664 5.31104L46.7392 5.94276C46.5364 5.97223 46.3459 6.05814 46.1893 6.19075C46.0326 6.32335 45.916 6.49737 45.8527 6.69308C45.7895 6.8888 45.782 7.09841 45.8312 7.29817C45.8803 7.49794 45.9842 7.67988 46.131 7.8234L49.2623 10.8892C49.4213 11.045 49.5402 11.2372 49.6089 11.4494C49.6777 11.6616 49.694 11.8874 49.6567 12.1073L48.9175 16.4365C48.8832 16.6392 48.906 16.8475 48.9833 17.0378C49.0606 17.2281 49.1894 17.3929 49.3551 17.5136C49.5208 17.6343 49.7167 17.706 49.9209 17.7207C50.125 17.7354 50.3292 17.6925 50.5103 17.5967L54.3795 15.5531C54.5764 15.4491 54.7955 15.3948 55.018 15.3948C55.2404 15.3948 55.4595 15.4491 55.6564 15.5531L59.5257 17.5967C59.7068 17.6925 59.9109 17.7354 60.1151 17.7207C60.3192 17.706 60.5152 17.6343 60.6809 17.5136C60.8466 17.3929 60.9753 17.2281 61.0527 17.0378C61.13 16.8475 61.1528 16.6392 61.1184 16.4365L60.3792 12.1073C60.3419 11.8874 60.3582 11.6616 60.4269 11.4494C60.4956 11.2372 60.6146 11.0449 60.7737 10.8892L63.9049 7.8234C64.0517 7.67988 64.1556 7.49794 64.2048 7.29817C64.254 7.09841 64.2465 6.8888 64.1832 6.69308C64.1199 6.49737 64.0033 6.32335 63.8467 6.19075C63.69 6.05814 63.4995 5.97223 63.2968 5.94276L58.9696 5.31104C58.7494 5.2789 58.5403 5.19346 58.3603 5.06209C58.1803 4.93071 58.0348 4.75734 57.9364 4.55693L56.0012 0.618723C55.9104 0.434702 55.7703 0.279814 55.5965 0.171527C55.4228 0.0632401 55.2224 0.00585938 55.018 0.00585938C54.8135 0.00585938 54.6131 0.0632401 54.4394 0.171527C54.2657 0.279814 54.1255 0.434702 54.0348 0.618723Z" fill="#FFAF00"/>
<path d="M76.9154 0.618409L74.9802 4.55662C74.8818 4.75703 74.7363 4.9304 74.5563 5.06177C74.3763 5.19314 74.1672 5.27858 73.947 5.31073L69.6204 5.94244C69.4176 5.97192 69.2271 6.05783 69.0705 6.19043C68.9138 6.32304 68.7972 6.49705 68.734 6.69277C68.6707 6.88849 68.6632 7.09809 68.7124 7.29786C68.7616 7.49762 68.8655 7.67956 69.0123 7.82309L72.1435 10.8888C72.3025 11.0447 72.4215 11.2369 72.4902 11.4491C72.5589 11.6613 72.5753 11.8871 72.5379 12.107L71.7987 16.4362C71.7644 16.6389 71.7872 16.8471 71.8645 17.0375C71.9418 17.2278 72.0706 17.3926 72.2363 17.5133C72.402 17.634 72.598 17.7057 72.8021 17.7204C73.0062 17.7351 73.2104 17.6921 73.3915 17.5964L77.2608 15.5527C77.4577 15.4488 77.6768 15.3945 77.8992 15.3945C78.1216 15.3945 78.3407 15.4488 78.5376 15.5527L82.4069 17.5964C82.588 17.6921 82.7922 17.7351 82.9963 17.7204C83.2004 17.7057 83.3964 17.634 83.5621 17.5133C83.7278 17.3926 83.8566 17.2278 83.9339 17.0375C84.0112 16.8471 84.034 16.6389 83.9997 16.4362L83.2605 12.107C83.2231 11.8871 83.2395 11.6613 83.3082 11.4491C83.3769 11.2369 83.4959 11.0446 83.6549 10.8888L86.7861 7.82309C86.9329 7.67956 87.0368 7.49762 87.086 7.29786C87.1352 7.09809 87.1277 6.88849 87.0644 6.69277C87.0011 6.49705 86.8846 6.32304 86.7279 6.19043C86.5713 6.05783 86.3808 5.97192 86.178 5.94244L81.8508 5.31073C81.6306 5.27858 81.4215 5.19314 81.2415 5.06177C81.0616 4.9304 80.9161 4.75703 80.8176 4.55662L78.8836 0.618409C78.793 0.433927 78.6528 0.278588 78.4789 0.16997C78.305 0.0613511 78.1043 0.00378418 77.8995 0.00378418C77.6947 0.00378418 77.494 0.0613511 77.3201 0.16997C77.1462 0.278588 77.006 0.433927 76.9154 0.618409Z" fill="#FFAF00"/>
<path d="M101.764 0.618763L103.699 4.55697C103.798 4.75738 103.943 4.93075 104.123 5.06212C104.303 5.1935 104.512 5.27894 104.732 5.31108L109.059 5.9428C109.262 5.97227 109.452 6.05818 109.609 6.19079C109.766 6.32339 109.882 6.49741 109.945 6.69312C110.009 6.88884 110.016 7.09845 109.967 7.29821C109.918 7.49797 109.814 7.67992 109.667 7.82344L106.536 10.8892C106.377 11.045 106.258 11.2373 106.189 11.4495C106.121 11.6617 106.104 11.8874 106.142 12.1074L106.881 16.4366C106.915 16.6392 106.892 16.8475 106.815 17.0378C106.738 17.2282 106.609 17.393 106.443 17.5137C106.277 17.6344 106.081 17.7061 105.877 17.7208C105.673 17.7354 105.469 17.6925 105.288 17.5967L101.419 15.5531C101.222 15.4491 101.003 15.3948 100.78 15.3948C100.558 15.3948 100.339 15.4491 100.142 15.5531L96.2725 17.5967C96.0914 17.6925 95.8873 17.7354 95.6831 17.7208C95.479 17.7061 95.283 17.6344 95.1173 17.5137C94.9517 17.393 94.8229 17.2282 94.7456 17.0378C94.6682 16.8475 94.6454 16.6392 94.6798 16.4366L95.419 12.1074C95.4564 11.8874 95.44 11.6616 95.3713 11.4494C95.3026 11.2372 95.1836 11.045 95.0245 10.8892L91.8933 7.82344C91.7465 7.67992 91.6426 7.49797 91.5934 7.29821C91.5442 7.09845 91.5517 6.88884 91.615 6.69312C91.6783 6.49741 91.7949 6.32339 91.9515 6.19079C92.1082 6.05818 92.2987 5.97227 92.5014 5.9428L96.8287 5.31108C97.0488 5.27894 97.2579 5.1935 97.4379 5.06212C97.6179 4.93075 97.7634 4.75738 97.8618 4.55697L99.7918 0.618763C99.882 0.433198 100.022 0.276801 100.197 0.167403C100.371 0.0580039 100.572 0 100.778 0C100.983 0 101.185 0.0580039 101.359 0.167403C101.534 0.276801 101.674 0.433198 101.764 0.618763Z" fill="#FFAF00"/>
<path d="M105.289 17.6003L102.654 16.2081V2.42871L103.7 4.55763C103.798 4.75804 103.943 4.93141 104.123 5.06278C104.303 5.19416 104.513 5.2796 104.733 5.31174L109.06 5.94346C109.263 5.97293 109.453 6.05884 109.61 6.19145C109.766 6.32405 109.883 6.49807 109.946 6.69378C110.01 6.8895 110.017 7.09911 109.968 7.29887C109.919 7.49863 109.815 7.68058 109.668 7.8241L106.537 10.8899C106.378 11.0457 106.259 11.2379 106.19 11.4501C106.121 11.6623 106.105 11.8881 106.142 12.108L106.882 16.4372C106.917 16.6401 106.894 16.8488 106.817 17.0396C106.74 17.2304 106.611 17.3957 106.446 17.5168C106.28 17.6378 106.084 17.7098 105.879 17.7246C105.675 17.7394 105.47 17.6963 105.289 17.6003Z" fill="#FFAF00"/>
<path d="M8.27232 0.618876L6.33711 4.55766C6.23867 4.75808 6.09318 4.93144 5.9132 5.06282C5.73321 5.19419 5.52413 5.27963 5.30395 5.31178L0.976705 5.94349C0.773952 5.97297 0.583458 6.05887 0.4268 6.19148C0.270142 6.32409 0.153573 6.4981 0.0902866 6.69382C0.0270006 6.88953 0.0195295 7.09914 0.0687147 7.2989C0.1179 7.49867 0.221792 7.68061 0.368605 7.82413L3.49983 10.8899C3.65884 11.0457 3.77779 11.238 3.8465 11.4502C3.9152 11.6623 3.93159 11.8881 3.89426 12.1081L3.15505 16.4373C3.12073 16.6399 3.14352 16.8482 3.22085 17.0385C3.29817 17.2289 3.42694 17.3937 3.59262 17.5144C3.7583 17.635 3.95429 17.7068 4.15843 17.7215C4.36256 17.7361 4.5667 17.6932 4.74781 17.5974L8.6171 15.5538C8.81399 15.4498 9.03309 15.3955 9.25553 15.3955C9.47797 15.3955 9.69707 15.4498 9.89396 15.5538L13.7632 17.5974C13.9444 17.6932 14.1485 17.7361 14.3526 17.7215C14.5568 17.7068 14.7528 17.635 14.9184 17.5144C15.0841 17.3937 15.2129 17.2289 15.2902 17.0385C15.3675 16.8482 15.3903 16.6399 15.356 16.4373L14.6168 12.1081C14.5794 11.8881 14.5958 11.6623 14.6645 11.4501C14.7332 11.2379 14.8522 11.0457 15.0112 10.8899L18.1425 7.82413C18.2893 7.68061 18.3932 7.49867 18.4423 7.2989C18.4915 7.09914 18.484 6.88953 18.4208 6.69382C18.3575 6.4981 18.2409 6.32409 18.0842 6.19148C17.9276 6.05887 17.7371 5.97297 17.5344 5.94349L13.2094 5.3112C12.9892 5.27905 12.7802 5.19361 12.6002 5.06224C12.4202 4.93086 12.2747 4.7575 12.1763 4.55708L10.241 0.618876C10.1505 0.43424 10.0103 0.27875 9.83635 0.17002C9.66238 0.0612907 9.46157 0.00366211 9.25667 0.00366211C9.05178 0.00366211 8.85097 0.0612907 8.677 0.17002C8.50303 0.27875 8.36285 0.43424 8.27232 0.618876Z" fill="#E2E2E2"/>
<path d="M10.2021 0.618845L12.1373 4.55705C12.2358 4.75747 12.3813 4.93083 12.5612 5.06221C12.7412 5.19358 12.9503 5.27902 13.1705 5.31117L17.4977 5.94288C17.7005 5.97236 17.891 6.05826 18.0476 6.19087C18.2043 6.32348 18.3208 6.49749 18.3841 6.69321C18.4474 6.88892 18.4549 7.09853 18.4057 7.29829C18.3565 7.49806 18.2526 7.68 18.1058 7.82352L14.9746 10.8893C14.8156 11.0451 14.6966 11.2374 14.6279 11.4495C14.5592 11.6617 14.5428 11.8875 14.5802 12.1075L15.3194 16.4367C15.3537 16.6393 15.3309 16.8476 15.2536 17.0379C15.1763 17.2283 15.0475 17.3931 14.8818 17.5138C14.7161 17.6344 14.5201 17.7062 14.316 17.7208C14.1119 17.7355 13.9077 17.6926 13.7266 17.5968L9.85734 15.5532C9.66045 15.4492 9.44135 15.3949 9.21891 15.3949C8.99647 15.3949 8.77737 15.4492 8.58048 15.5532L4.71119 17.5968C4.53008 17.6926 4.32592 17.7355 4.12179 17.7208C3.91765 17.7062 3.72168 17.6344 3.556 17.5138C3.39032 17.3931 3.26155 17.2283 3.18422 17.0379C3.1069 16.8476 3.08411 16.6393 3.11843 16.4367L3.85764 12.1075C3.89502 11.8875 3.87866 11.6617 3.80995 11.4495C3.74124 11.2373 3.62224 11.0451 3.4632 10.8893L0.331967 7.82352C0.185154 7.68 0.0812788 7.49806 0.0320936 7.29829C-0.0170916 7.09853 -0.0096205 6.88892 0.0536655 6.69321C0.116951 6.49749 0.233521 6.32348 0.390179 6.19087C0.546837 6.05826 0.737331 5.97236 0.940084 5.94288L5.26733 5.31117C5.48751 5.27902 5.69659 5.19358 5.87658 5.06221C6.05656 4.93083 6.20205 4.75747 6.30049 4.55705L8.2357 0.618845C8.32647 0.434824 8.46662 0.279936 8.64035 0.171649C8.81407 0.0633621 9.01445 0.00598145 9.21891 0.00598145C9.42336 0.00598145 9.62375 0.0633621 9.79747 0.171649C9.97119 0.279936 10.1113 0.434824 10.2021 0.618845Z" fill="#FFAF00"/>
</svg>
