<svg width="14" height="13" viewBox="0 0 14 13" fill="none" xmlns="http://www.w3.org/2000/svg">
<path d="M13.1195 0.380198C12.6126 -0.126733 11.7906 -0.126733 11.2837 0.380198L6.99984 4.66406L2.71598 0.380198C2.20905 -0.126733 1.38713 -0.126733 0.880198 0.380198C0.373267 0.88713 0.373267 1.70905 0.880198 2.21614L5.16406 6.5L0.880198 10.7839C0.373267 11.2908 0.373267 12.1127 0.880198 12.6198C1.38713 13.1267 2.20905 13.1267 2.71614 12.6198L7 8.33594L11.2839 12.6198C11.7908 13.1267 12.6127 13.1267 13.1196 12.6198C13.6266 12.1129 13.6266 11.2909 13.1196 10.7839L8.83579 6.5L13.1196 2.21614C13.6266 1.70921 13.6266 0.887284 13.1196 0.380198H13.1195Z" fill="black"/>
</svg>
